# xmcd CD database file
#
# Track frame offsets:
#	150
#	14578
#	26670
#	39492
#	58152
#	70261
#	87963
#	100190
#	116066
#	133369
#	149526
#	163472
#	183784
#	203938
#	217549
#	233742
#	248969
#	262655
#
# Disc length: 3677 seconds
#
# Revision: 0
# Processed by: cddbd v1.5.2PL0 Copyright (c) Steve Scherf et al.
# Submitted via: CDex 1.51
#
DISCID=060e5b12
DTITLE=Gabriel,Gunter - Mein Anderes Ich
DYEAR=2011
DGENRE=Country
TTITLE0=Der alte Mann und sein großes Haus
TTITLE1=Draußen vor der Tür
TTITLE2=Dies ist mein Land
TTITLE3=Meie alte Stadt
TTITLE4=Wie hab ich Dich nur verdient
TTITLE5=Ich schlaf nicht gerne allein ein
TTITLE6=Solang ich aufwach in Deinen Armen
TTITLE7=Wer nichts mehr zu verlieren hat
TTITLE8=Hallo, mein Freund
TTITLE9=Man muß ohne zu klagen der Leben ertragen
TTITLE10=Worte, die ich leider nie gesagt
TTITLE11=Das ist bei mir schon Tradition
TTITLE12=Fünf Uhr morgens
TTITLE13=Hinrich´s Nest
TTITLE14=Auch John Wayne hat manchmal geweint
TTITLE15=Lucille
TTITLE16=Der Mann hinterm Pflug
TTITLE17=Adios Amigo
EXTD=YEAR: 2011
EXTT0=
EXTT1=
EXTT2=
EXTT3=
EXTT4=
EXTT5=
EXTT6=
EXTT7=
EXTT8=
EXTT9=
EXTT10=
EXTT11=
EXTT12=
EXTT13=
EXTT14=
EXTT15=
EXTT16=
EXTT17=
PLAYORDER=
